PathFileType	4	(X/Y/Z)	C:/Users/beibeiliu/ov580/test_trc\sequence.6_training_dense_right.trc
DataRate	CameraRate	NumFrames	NumMarkers	Units	OrigDataRate	OrigDataStartFrame	OrigNumFrames
120	120	8	19	mm	120	275	314
Frame#	Time	ThumbCMC			ThumbMCP			ThumbIP			ThumbTip			IndexMCP			IndexPIP			IndexTip			MiddleMCP			MiddlePIP			MiddleTip			RingMCP			RingPIP			RingTip			PinkyMCP			PinkyPIP			PinkyTip			BackHand1			BackHand2			BackHand3	
		X0	Y0	Z0	X1	Y1	Z1	X2	Y2	Z2	X3	Y3	Z3	X4	Y4	Z4	X5	Y5	Z5	X6	Y6	Z6	X7	Y7	Z7	X8	Y8	Z8	X9	Y9	Z9	X10	Y10	Z10	X11	Y11	Z11	X12	Y12	Z12	X13	Y13	Z13	X14	Y14	Z14	X15	Y15	Z15	X16	Y16	Z16	X17	Y17	Z17	X18	Y18	Z18	
274	2.28333	142.902	-15.4135	19.7556	124.838	-24.5214	0.00437034	111.151	-28.5659	-17.3975	97.8167	-32.8352	-30.2824	138.425	-13.6206	-47.3526	137.259	-18.921	-69.263	130.527	-22.4585	-94.7074	165.536	-14.8663	-57.7256	168.286	-18.6664	-79.945	169.391	-18.6676	-102.168	187.148	-18.7648	-50.0915	188.898	-21.3773	-71.1504	192.766	-21.1382	-92.8732	204.574	-27.0619	-33.6618	214.175	-29.9758	-46.6449	223.302	-25.9775	-65.4959	188.828	-6.97459	-10.4972	189.574	0.471151	15.0584	162.106	0.782023	1.56965	
275	2.29167	139.706	-14.2764	21.0615	120.729	-24.3723	0.51003	111.537	-28.7468	-14.8012	95.0233	-30.9934	-31.1074	142.122	-13.5639	-52.1982	132.786	-19.118	-71.2732	128.599	-22.7397	-91.554	167.816	-14.8711	-57.4566	165.557	-17.4404	-78.0203	172.66	-19.5815	-105.492	186.205	-17.9499	-51.3579	188.935	-20.7073	-71.6132	192.148	-21.4168	-90.7377	207.323	-26.7715	-33.5171	215.4	-28.932	-51.0372	226.304	-25.1144	-63.3555	186.763	-7.29833	-10.1618	190.941	-1.8558	17.8767	160.901	1.39843	7.00549	
276	2.3	142.8	-15.9744	17.3731	124.134	-24.1124	0.120884	110.081	-28.6481	-16.5225	96.8808	-31.8167	-30.1276	139.314	-13.8902	-48.6842	136.271	-19.4176	-72.4508	132.767	-23.2503	-90.4332	165.218	-14.2967	-54.8156	169.823	-17.7819	-80.9528	173.207	-20.0165	-105.517	188.326	-19.0771	-47.1827	189.889	-21.4633	-67.978	192.845	-22.2982	-87.9309	209.751	-27.6503	-33.3301	215.63	-30.5724	-49.3285	226.385	-27.5466	-63.0853	187.244	-6.07375	-9.49526	188.8	0.10778	14.7061	160.75	1.64866	4.8671	
277	2.30833	137.991	-14.0406	18.2371	121.52	-24.3408	3.20474	112.98	-29.0258	-14.547	100.462	-32.4142	-30.9272	143.13	-13.9502	-49.5739	137.951	-20.0113	-72.344	132.691	-22.9763	-90.3944	165.342	-14.2951	-55.9951	169.051	-18.0076	-77.9397	168.116	-19.3623	-105.823	187.928	-20.3136	-49.5034	189.731	-22.3635	-72.8613	193.932	-22.444	-92.5044	207.961	-27.4119	-32.1885	215.531	-31.5912	-46.665	221.856	-27.9192	-64.2634	186.868	-8.09436	-5.16462	187.035	0.919069	18.9852	163.155	2.9731	7.12333	
278	2.31667	139.131	-14.6082	19.5323	121.082	-24.2707	2.2599	109.093	-28.5224	-14.7305	99.5519	-30.8982	-31.7136	141.862	-14.5161	-47.894	136.248	-19.358	-69.9933	132.548	-23.954	-94.4328	166.829	-15.0551	-54.9972	170.114	-17.8828	-77.2641	171.543	-20.3722	-101.502	187.771	-20.2815	-46.9801	194.311	-24.033	-70.2447	194.638	-23.6261	-89.6838	206.026	-27.4112	-33.1488	216.658	-31.3318	-49.7217	222.319	-25.9274	-62.6734	186.175	-5.79794	-9.4161	191.938	-2.17449	20.2411	161.896	3.34546	6.05128	
279	2.325	140.873	-14.9438	16.6455	125.517	-24.4221	0.0940964	113.769	-28.0802	-19.0244	101.013	-31.9454	-29.5825	141.407	-14.0733	-46.2828	139.16	-19.0705	-69.7085	132.528	-22.747	-89.2144	171.371	-15.5073	-57.0119	170.435	-18.5287	-79.0983	171.772	-20.6673	-105.976	186.958	-20.1317	-46.285	195.341	-23.2308	-70.8666	194.894	-24.5687	-87.9984	209.676	-28.9807	-35.2352	218.177	-31.4351	-48.9667	227.07	-27.6884	-63.037	186.999	-8.8569	-7.51515	190.975	-0.221162	17.0131	167.665	1.02359	5.67718	
280	2.33333	141.928	-14.0361	19.2732	127.602	-24.1926	-1.68748	112.052	-29.1848	-14.9794	98.2405	-31.1728	-29.469	144.502	-13.2252	-47.0166	138.035	-18.5475	-67.9045	134.669	-24.3098	-89.6175	172.198	-15.2981	-54.3354	170.818	-18.8502	-80.5693	172.182	-20.8064	-101.624	191.126	-21.4951	-49.2344	195.335	-24.1469	-69.6525	194.745	-23.5569	-91.3867	210.398	-29.137	-31.4585	213.887	-30.0186	-47.5874	223.926	-26.8046	-59.7334	187.554	-6.37456	-4.13048	190.529	-2.71905	15.9904	166.682	0.951705	2.03882	
281	2.34167	144.607	-13.7308	20.5576	128.673	-24.4788	2.85217	111.066	-28.4824	-18.8741	101.027	-32.885	-30.358	142.806	-13.239	-50.5374	140.173	-18.738	-69.9037	131.151	-22.0108	-89.4017	170.085	-15.2504	-58.4196	172.221	-19.019	-80.8822	171.521	-19.8128	-104.51	193.222	-20.77	-51.5274	192.623	-23.034	-67.2584	198.54	-24.0124	-90.1066	211.393	-29.3986	-30.336	217.861	-30.3184	-47.5877	227.278	-28.2262	-60.2181	188.986	-5.59459	-6.48801	195.864	-0.482104	20.331	168.935	0.511943	3.15026	
